// https://dbdiagram.io/d/6642940e9e85a46d55bfdc82
// Instagram Database Design dbml file
Table users {
  id SERIAL [pk, increment]
  created_at TIMESTAMP
  updated_at TIMESTAMP
  username VARCHAR(30)
  bio VARCHAR(400)
  avatar VARCHAR(200)
  phone VARCHAR(25)
  email VARCHAR(40)
  password VARCHAR(50)
  status VARCHAR(15)
}

Table posts {
  id SERIAL [pk, increment]
  created_at TIMESTAMP
  updated_at TIMESTAMP
  url VARCHAR(200)
  user_id INTEGER [ref: > users.id]
  caption VARCHAR(240)
  lat REAL
  lng  REAL

}

Table comments {
  id SERIAL [pk, increment]
  created_at TIMESTAMP
  updated_at TIMESTAMP
  contents VARCHAR(240)
  user_id INTEGER [ref: > users.id]
  post_id INTEGER [ref: > posts.id]
}

Table likes{
    id SERIAL [pk, increment]
    created_at TIMESTAMP
    user_id INTEGER [ref: >users.id]
    comment_id INTEGER [ref: >comments.id]
    post_id INTEGER [ref: > posts.id]
}

Table photo_tags{
    id SERIAL [pk, increment]
    created_at TIMESTAMP
    updated_at TIMESTAMP
    post_id INTEGER [ref: > posts.id]
    user_id INTEGER [ref: >users.id]
    x INTEGER
    y INTEGER

}

Table caption_tags{
    id SERIAL [pk, increment]
    created_at TIMESTAMP
    post_id INTEGER [ref: > posts.id]
    user_id INTEGER [ref: >users.id]

}

Table hashtags{
    id SERIAL [pk, increment]
    created_at TIMESTAMP
    title VARCHAR(20)

}

Table hashtags_posts{
    id SERIAL [pk, increment]
    hashtag_id INTEGER [ref: > hashtags.id]
    post_id INTEGER [ref: > posts.id]
}

Table followers{
    id SERIAL [pk, increment]
    created_at TIMESTAMP
    leader_id INTEGER [ref: > users.id]
    follower_id INTEGER [ref: > users.id]

}